<svg id="Layer_1" data-name="Layer 1" xmlns="http://www.w3.org/2000/svg" xmlns:xlink="http://www.w3.org/1999/xlink" viewBox="0 0 3359.26 3359.26"><defs><style>.cls-1{fill:url(#radial-gradient);}.cls-2{fill:#fff;}</style><radialGradient id="radial-gradient" cx="0" cy="3364" r="0" gradientTransform="matrix(1, 0, 0, -1, 0, 3364)" gradientUnits="userSpaceOnUse"><stop offset="0.64" stop-color="#8c3aaa" stop-opacity="0"/><stop offset="1" stop-color="#8c3aaa"/></radialGradient></defs><title>capcut</title><path class="cls-1" d="M0,0"/><path class="cls-2" d="M6.59,932.3c-1.4,101.48,0,203.2,0,304.68a61.68,61.68,0,0,0,36.78,56.1q479,238.35,959.43,475.06C685.32,1924.09,369,2082.13,52,2238.78a67.73,67.73,0,0,0-46.55,55.63v305.38a456.21,456.21,0,0,0,386.85,405c40,3.72,80.07,3,120.1,3H2290.19a513.43,513.43,0,0,0,128-10.47A465.52,465.52,0,0,0,2716.38,2769a733.61,733.61,0,0,0,48.88-128c182.48,95,368.92,183.41,552.8,275.82a25.84,25.84,0,0,0,41.2-20.95V2580.24a53.54,53.54,0,0,0-35.84-46.55L1779.75,1768.14Q2553.21,1384.32,3326.91,1000a52.14,52.14,0,0,0,31.42-46.55V638.33a24.9,24.9,0,0,0-35.84-19.09L2762,897.15A480.64,480.64,0,0,0,2689.14,727a463.19,463.19,0,0,0-343.32-198.78H439.29C215.5,538.62,32.26,709.74,6.59,932.3Z"/><path class="cls-2" d="M359.69,934.4a115,115,0,0,1,106.6-63.31H2309a116.38,116.38,0,0,1,116.38,99.62c2.33,31,1.16,61.91,0,93.1L1392,1575.88c-349.14-171.31-696.18-344.72-1044.16-517.19C349.45,1017.26,340.6,972.8,359.69,934.4Z"/><path class="cls-2" d="M347.82,2479q520.45-259.53,1042.06-517c345.88,168.52,690.36,341.69,1035.78,512.07-2.33,44.69,8.61,93.1-14.9,134.3a115,115,0,0,1-100.79,58H466.53a116.38,116.38,0,0,1-105.91-61.68C340.14,2566,349.45,2520.89,347.82,2479Z"/><rect class="cls-2" width="3359.26" height="3359.26"/><path d="M348.77,1016.8C369,839.43,514.93,703,693.26,694.73H2210.83A368.56,368.56,0,0,1,2484,852.89a382.44,382.44,0,0,1,58,135.39l446-221.14a19.82,19.82,0,0,1,28.52,15.19V1033.1a41.49,41.49,0,0,1-25.74,39.26q-615.44,305.22-1231.06,611.18L2988,2291.2a42.6,42.6,0,0,1,28.52,37v251.14a20.56,20.56,0,0,1-32.78,16.67C2837.38,2522,2689,2452.15,2543.83,2376.58a583.73,583.73,0,0,1-38.89,101.86,370.41,370.41,0,0,1-236.88,182.8,408.54,408.54,0,0,1-101.86,8.33H751.78c-31.86,0-63.9,0-95.57-2.41a363,363,0,0,1-307.44-322.81v-243a53.9,53.9,0,0,1,37-44.26c252.25-124.64,503.95-250.4,756.57-374.49q-381.71-190-764-378.93a49.08,49.08,0,0,1-29.26-44.63C348.77,1178.49,347.48,1097.55,348.77,1016.8Zm281.14,1.67c-15.19,30.56-8.15,65.93-9.45,98.9,277.81,137.24,553.58,275.22,830.83,411.53q411-203.73,822.31-407.45c0-24.63,1.11-49.26,0-74.08a92.6,92.6,0,0,0-92.6-79.27H714.56a91.49,91.49,0,0,0-84.82,50.38Zm-9.45,1229c1.3,33.34-5.93,69.27,10.19,100.2a92.6,92.6,0,0,0,84.27,49.08H2182.31a91.49,91.49,0,0,0,80.19-46.12c18.52-32.41,10-71.3,11.85-106.86-274.66-135.57-549-273.36-824.17-407.45Q1034,2041.92,620.29,2247.49Z"/></svg>