<svg id="Layer_1" data-name="Layer 1" xmlns="http://www.w3.org/2000/svg" xmlns:xlink="http://www.w3.org/1999/xlink" viewBox="0 0 3364.78 3364.72"><defs><style>.cls-1{fill:none;}.cls-2{fill:url(#radial-gradient);}.cls-3{fill:#00749b;}.cls-4{clip-path:url(#clip-path);}</style><radialGradient id="radial-gradient" cx="0" cy="3364" r="0" gradientTransform="matrix(1, 0, 0, -1, 0, 3364)" gradientUnits="userSpaceOnUse"><stop offset="0.64" stop-color="#8c3aaa" stop-opacity="0"/><stop offset="1" stop-color="#8c3aaa"/></radialGradient><clipPath id="clip-path" transform="translate(0 0)"><polygon class="cls-1" points="0 0 3364.64 0 3364.64 3364.7 0 3364.7 0 0 0 0"/></clipPath></defs><title>wordpress</title><path class="cls-2" d="M0,0" transform="translate(0 0)"/><path class="cls-3" d="M239.14,1682.29c0,571.3,332,1064.95,813.39,1298.93L364.08,1095a1437.75,1437.75,0,0,0-124.94,587.34Z" transform="translate(0 0)"/><path class="cls-3" d="M2656.64,1609.48c0-178.37-64.07-301.89-119-398-73.12-118.88-141.68-219.56-141.68-338.44,0-132.67,100.6-256.17,242.31-256.17,6.4,0,12.46.81,18.74,1.15-256.81-235.22-598.89-378.86-974.62-378.86-504.21,0-947.78,258.69-1205.84,650.53,33.88,1,65.82,1.69,92.87,1.69C720.33,891.35,954,873,954,873c77.8-4.59,87,109.69,9.28,118.88,0,0-78.22,9.2-165.22,13.76l525.58,1563.25,315.86-947.25-224.91-616c-77.72-4.57-151.34-13.76-151.34-13.76-77.77-4.56-68.66-123.47,9.12-118.88,0,0,238.33,18.31,380.15,18.31,150.93,0,384.62-18.31,384.62-18.31,77.86-4.59,87,109.68,9.26,118.88,0,0-78.34,9.19-165.17,13.76L2402.8,2557.07l143.91-481c62.44-199.63,109.93-343,109.93-466.55Z" transform="translate(0 0)"/><path class="cls-3" d="M1707.66,1808.55l-433,1258.22a1443.26,1443.26,0,0,0,887-23,118.62,118.62,0,0,1-10.27-19.87L1707.66,1808.55Z" transform="translate(0 0)"/><g class="cls-4"><path class="cls-3" d="M2948.72,989.88a1109.68,1109.68,0,0,1,9.71,148.41c0,146.45-27.35,311.09-109.74,516.94L2407.86,2929.8c429.06-250.21,717.65-715,717.65-1247.51,0-250.88-64.08-486.83-176.79-692.41Z" transform="translate(0 0)"/><path class="cls-3" d="M1682.35,3287.56c-885.07,0-1605.22-720.13-1605.22-1605.27S797.22,77.17,1682.35,77.17,3287.48,797.24,3287.48,1682.29,2567.39,3287.56,1682.35,3287.56ZM1682.35,0C754.71,0,0,754.69,0,1682.29S754.68,3364.72,1682.35,3364.72s1682.43-754.67,1682.43-1682.43C3364.75,754.68,2609.95,0,1682.35,0Z" transform="translate(0 0)"/></g></svg>